<?xml version="1.0" encoding="UTF-8" standalone="no" ?>
<!DOCTYPE svg PUBLIC "-//W3C//DTD SVG 1.1//EN" "http://www.w3.org/Graphics/SVG/1.1/DTD/svg11.dtd">
<svg xmlns="http://www.w3.org/2000/svg" xmlns:xlink="http://www.w3.org/1999/xlink" version="1.1" width="500" height="340" viewBox="0 0 500 340" xml:space="preserve">
<desc>Created with Fabric.js 4.6.0</desc>
<defs>
</defs>
<g transform="matrix(0.35 0 0 1.21 114.92 116.26)" id="rFVuJhz5WuynEQaodPGYH"  >
<path style="stroke: rgb(95,162,177); stroke-width: 0; stroke-dasharray: none; stroke-linecap: butt; stroke-dashoffset: 0; stroke-linejoin: miter; stroke-miterlimit: 4; fill: rgb(173,151,79); fill-rule: nonzero; opacity: 1;" vector-effect="non-scaling-stroke"  transform=" translate(0, 0)" d="M -83.60477 -64.39287 C -83.60477 -69.48818 -76.60821 -74.37481 -64.15424 -77.97774 C -51.70027 -81.58067 -34.809070000000006 -83.60477999999999 -17.196510000000004 -83.60477999999999 L 17.196499999999993 -83.60477999999999 L 17.196499999999993 -83.60477999999999 C 34.80906999999999 -83.60477999999999 51.700269999999996 -81.58067 64.15422999999998 -77.97774 C 76.60819999999998 -74.37481 83.60475999999998 -69.48819 83.60475999999998 -64.39287 L 83.60475999999998 64.39287 L 83.60475999999998 64.39287 C 83.60475999999998 75.00331 53.87276999999999 83.60477 17.196499999999986 83.60477 L -17.19651000000001 83.60477 L -17.19651000000001 83.60477 C -53.87278000000001 83.60477 -83.60477 75.00331 -83.60477 64.39287 z" stroke-linecap="round" />
</g>
<g transform="matrix(0.28 0 0 0.84 49.83 115.84)" id="3g33i9qCLGK7wDXb-nmGS"  >
<path style="stroke: rgb(95,162,177); stroke-width: 0; stroke-dasharray: none; stroke-linecap: butt; stroke-dashoffset: 0; stroke-linejoin: miter; stroke-miterlimit: 4; fill: rgb(173,151,79); fill-rule: nonzero; opacity: 1;" vector-effect="non-scaling-stroke"  transform=" translate(0, 0)" d="M -83.60477 -64.74621 C -83.60477 -75.16151 -58.266760000000005 -83.60477 -27.010740000000006 -83.60477 L 27.010749999999994 -83.60477 L 27.010749999999994 -83.60477 C 58.266769999999994 -83.60477 83.60477999999999 -75.1615 83.60477999999999 -64.74621 L 83.60477999999999 64.74621 L 83.60477999999999 64.74621 C 83.60477999999999 75.16151 58.266769999999994 83.60477 27.010749999999994 83.60477 L -27.010740000000006 83.60477 L -27.010740000000006 83.60477 C -58.266760000000005 83.60477 -83.60477 75.1615 -83.60477 64.74621 z" stroke-linecap="round" />
</g>
<g transform="matrix(0.1 0 0 0.38 8.73 116.26)" id="A2dh2rKXI_aLkaKX-ca-K"  >
<path style="stroke: rgb(95,162,177); stroke-width: 0; stroke-dasharray: none; stroke-linecap: butt; stroke-dashoffset: 0; stroke-linejoin: miter; stroke-miterlimit: 4; fill: rgb(173,151,79); fill-rule: nonzero; opacity: 1;" vector-effect="non-scaling-stroke"  transform=" translate(0, 0)" d="M -83.60477 -60.70748 C -83.60477 -73.35331 -46.19675 -83.60478 -0.05163000000000295 -83.60478 L 0.05161999999999704 -83.60478 L 0.05161999999999704 -83.60478 C 46.19675 -83.60478 83.60476 -73.35331000000001 83.60476 -60.707480000000004 L 83.60476 60.70747 L 83.60476 60.70747 C 83.60476 73.3533 46.19674 83.60477 0.05161999999999978 83.60477 L -0.05163000000000022 83.60477 L -0.05163000000000022 83.60477 C -46.196760000000005 83.60477 -83.60477 73.3533 -83.60477 60.70747 z" stroke-linecap="round" />
</g>
<g transform="matrix(-0.35 0 0 1.21 386.16 116.69)" id="_yD7XgRkWhiUXI90-_9kV"  >
<path style="stroke: rgb(95,162,177); stroke-width: 0; stroke-dasharray: none; stroke-linecap: butt; stroke-dashoffset: 0; stroke-linejoin: miter; stroke-miterlimit: 4; fill: rgb(173,151,79); fill-rule: nonzero; opacity: 1;" vector-effect="non-scaling-stroke"  transform=" translate(0, 0)" d="M -83.60477 -64.39287 C -83.60477 -69.48818 -76.60821 -74.37481 -64.15424 -77.97774 C -51.70027 -81.58067 -34.809070000000006 -83.60477999999999 -17.196510000000004 -83.60477999999999 L 17.196499999999993 -83.60477999999999 L 17.196499999999993 -83.60477999999999 C 34.80906999999999 -83.60477999999999 51.700269999999996 -81.58067 64.15422999999998 -77.97774 C 76.60819999999998 -74.37481 83.60475999999998 -69.48819 83.60475999999998 -64.39287 L 83.60475999999998 64.39287 L 83.60475999999998 64.39287 C 83.60475999999998 75.00331 53.87276999999999 83.60477 17.196499999999986 83.60477 L -17.19651000000001 83.60477 L -17.19651000000001 83.60477 C -53.87278000000001 83.60477 -83.60477 75.00331 -83.60477 64.39287 z" stroke-linecap="round" />
</g>
<g transform="matrix(-0.28 0 0 0.84 451.24 116.26)" id="aDNxx3DJsCSB8ExtV_dM1"  >
<path style="stroke: rgb(95,162,177); stroke-width: 0; stroke-dasharray: none; stroke-linecap: butt; stroke-dashoffset: 0; stroke-linejoin: miter; stroke-miterlimit: 4; fill: rgb(173,151,79); fill-rule: nonzero; opacity: 1;" vector-effect="non-scaling-stroke"  transform=" translate(0, 0)" d="M -83.60477 -64.74621 C -83.60477 -75.16151 -58.266760000000005 -83.60477 -27.010740000000006 -83.60477 L 27.010749999999994 -83.60477 L 27.010749999999994 -83.60477 C 58.266769999999994 -83.60477 83.60477999999999 -75.1615 83.60477999999999 -64.74621 L 83.60477999999999 64.74621 L 83.60477999999999 64.74621 C 83.60477999999999 75.16151 58.266769999999994 83.60477 27.010749999999994 83.60477 L -27.010740000000006 83.60477 L -27.010740000000006 83.60477 C -58.266760000000005 83.60477 -83.60477 75.1615 -83.60477 64.74621 z" stroke-linecap="round" />
</g>
<g transform="matrix(-0.1 0 0 0.38 491.16 116.69)" id="a2DnH9EDpjWysSa_pwco1"  >
<path style="stroke: rgb(95,162,177); stroke-width: 0; stroke-dasharray: none; stroke-linecap: butt; stroke-dashoffset: 0; stroke-linejoin: miter; stroke-miterlimit: 4; fill: rgb(173,151,79); fill-rule: nonzero; opacity: 1;" vector-effect="non-scaling-stroke"  transform=" translate(0, 0)" d="M -83.60477 -60.70748 C -83.60477 -73.35331 -46.19675 -83.60478 -0.05163000000000295 -83.60478 L 0.05161999999999704 -83.60478 L 0.05161999999999704 -83.60478 C 46.19675 -83.60478 83.60476 -73.35331000000001 83.60476 -60.707480000000004 L 83.60476 60.70747 L 83.60476 60.70747 C 83.60476 73.3533 46.19674 83.60477 0.05161999999999978 83.60477 L -0.05163000000000022 83.60477 L -0.05163000000000022 83.60477 C -46.196760000000005 83.60477 -83.60477 73.3533 -83.60477 60.70747 z" stroke-linecap="round" />
</g>
<g transform="matrix(3.19 0 0 0.89 250.67 37.46)" id="pWIe8K36qGsrv7yh3HJai"  >
<path style="stroke: rgb(158,75,211); stroke-width: 0; stroke-dasharray: none; stroke-linecap: butt; stroke-dashoffset: 0; stroke-linejoin: miter; stroke-miterlimit: 4; fill: rgb(173,151,79); fill-rule: nonzero; opacity: 1;" vector-effect="non-scaling-stroke"  transform=" translate(0, 0)" d="M -27.45763 26.05686 C -27.45763 4.450659999999999 -22.58171 -13.064630000000001 -16.566950000000002 -13.064630000000001 L -7.590310000000002 -13.064630000000001 L -7.590310000000002 -41.85061 L 7.7398099999999985 -41.85061 L 7.7398099999999985 -13.064630000000005 L 16.08833 -13.064630000000005 L 16.08833 -13.064630000000005 C 22.36742 -13.064630000000005 27.45763 5.220419999999994 27.45763 27.776159999999994 L 27.45763 41.85061999999999 L -27.45763 41.85061999999999 z" stroke-linecap="round" />
</g>
<g transform="matrix(1.02 0 0 1.02 250.67 173.35)" id="03P1trsNP4SadSQxPO8Re"  >
<path style="stroke: rgb(0,0,0); stroke-width: 0; stroke-dasharray: none; stroke-linecap: butt; stroke-dashoffset: 0; stroke-linejoin: miter; stroke-miterlimit: 4; fill: rgb(173,151,79); fill-rule: nonzero; opacity: 1;" vector-effect="non-scaling-stroke"  transform=" translate(0, 0)" d="M -104.90439 -72.85801 L 104.90439999999998 -72.85801 L 104.90439999999998 -37.53885999999999 L 87.22385999999997 -37.53885999999999 L 87.22385999999997 1.433000000000007 C 87.22385999999997 1.433000000000007 88.90431999999997 34.28269000000001 72.63641999999997 41.805440000000004 C 56.368519999999975 49.328190000000006 25.563779999999973 48.58156 25.563779999999973 48.58156 L 25.563779999999973 67.60814 L 0.000009999999971199713 67.60814 C 0.000009999999971199713 67.60814 -7.5804000000000284 67.87490000000001 -12.65176000000003 69.17153 C -17.72312000000003 70.46815000000001 -22.30856000000003 72.85802000000001 -22.30856000000003 72.85802000000001 L -22.30856000000003 47.51774000000001 C -22.30856000000003 47.51774000000001 -55.07244000000003 51.09027000000001 -70.61307000000002 39.22856000000001 C -86.15370000000001 27.36686000000001 -84.47109000000002 0.07093000000001126 -84.47109000000002 0.07093000000001126 L 38.32973999999999 0.07093000000001126 L 38.32973999999999 -23.33332999999999 C 38.32973999999999 -23.33332999999999 -33.802030000000016 -24.12677999999999 -48.00626000000001 -24.39111999999999 C -67.52631000000001 -26.60696999999999 -75.50005000000002 -37.53884999999999 -75.50005000000002 -37.53884999999999 L -104.90439000000002 -37.53884999999999 z" stroke-linecap="round" />
</g>
<g transform="matrix(1.02 0 0 1.02 357.67 292.64)" id="KFSF92K7EsfLIGRMlV8gG"  >
<path style="stroke: rgb(0,0,0); stroke-width: 0; stroke-dasharray: none; stroke-linecap: butt; stroke-dashoffset: 0; stroke-linejoin: miter; stroke-miterlimit: 4; fill: rgb(173,151,79); fill-rule: nonzero; opacity: 1;" vector-effect="non-scaling-stroke"  transform=" translate(0, 0)" d="M -79.47851 46.12428 L -52.902699999999996 46.12428 L -32.800489999999996 9.923429999999996 L -15.083279999999995 9.923429999999996 L 15.921830000000003 -8.815920000000006 L -20.875439999999994 -8.815920000000006 L -12.868629999999994 -22.614900000000006 L 42.510870000000004 -22.614900000000006 L 79.4785 -46.12427000000001 L -25.632230000000007 -46.12427000000001 z" stroke-linecap="round" />
</g>
<g transform="matrix(1.02 0 0 1.02 255.64 292.64)" id="3KyG8fGP2QzlWev2D9sQi"  >
<path style="stroke: rgb(0,0,0); stroke-width: 0; stroke-dasharray: none; stroke-linecap: butt; stroke-dashoffset: 0; stroke-linejoin: miter; stroke-miterlimit: 4; fill: rgb(173,151,79); fill-rule: nonzero; opacity: 1;" vector-effect="non-scaling-stroke"  transform=" translate(0, 0)" d="M 36.25286 -22.61491 L 74.24264 -46.12428 L -4.876660000000001 -46.12428 C -4.876660000000001 -46.12428 -17.83573 -45.14472 -25.92772 -41.18391 C -34.01971 -37.22309 -39.38598 -30.281009999999995 -39.38598 -30.281009999999995 L -72.60574 26.788840000000008 C -72.60574 26.788840000000008 -75.62959 34.902170000000005 -73.45752999999999 39.73603000000001 C -71.28546999999999 44.56989000000001 -63.91749999999999 46.124280000000006 -63.91749999999999 46.124280000000006 L 10.699200000000005 46.124280000000006 L 23.476030000000005 23.892760000000006 L -32.74203 23.892760000000006 C -32.74203 23.892760000000006 -38.02312 23.509460000000008 -39.38598 20.996680000000005 C -40.74884 18.483900000000006 -38.19348 13.841650000000005 -38.19348 13.841650000000005 L -19.113410000000002 -16.822749999999996 C -19.113410000000002 -16.822749999999996 -17.02653 -20.144729999999996 -14.002680000000002 -21.592769999999994 C -10.978830000000002 -23.040809999999993 -7.018010000000001 -22.614919999999994 -7.018010000000001 -22.614919999999994 z" stroke-linecap="round" />
</g>
<g transform="matrix(1.02 0 0 1.02 149.58 292.64)" id="hBHSD3duPjXeKrHXa-De7"  >
<path style="stroke: rgb(0,0,0); stroke-width: 0; stroke-dasharray: none; stroke-linecap: butt; stroke-dashoffset: 0; stroke-linejoin: miter; stroke-miterlimit: 4; fill: rgb(173,151,79); fill-rule: nonzero; opacity: 1;" vector-effect="non-scaling-stroke"  transform=" translate(0, 0)" d="M 9.88184 46.12428 L 40.71659 -8.134500000000003 L -3.97757 -8.134500000000003 L -35.26296 9.582709999999999 L 3.919319999999999 9.582709999999999 L -3.977570000000001 23.55205 L -35.26296 23.55205 C -35.26296 23.55205 -38.58494 23.381690000000003 -39.69226 21.16704 C -40.799589999999995 18.95239 -39.69226 14.69345 -39.69226 14.69345 L -22.826839999999997 -13.585939999999999 C -22.826839999999997 -13.585939999999999 -19.59004 -17.80229 -16.353249999999996 -20.229889999999997 C -13.116449999999995 -22.657489999999996 -7.835359999999996 -23.296329999999998 -7.835359999999996 -23.296329999999998 L 36.28730000000001 -23.296329999999998 L 74.95851000000002 -46.124269999999996 L -9.879649999999984 -46.124269999999996 C -9.879649999999984 -46.124269999999996 -18.312359999999984 -45.69837999999999 -25.041489999999982 -42.54675999999999 C -31.77061999999998 -39.39513999999999 -36.79616999999998 -33.517799999999994 -36.79616999999998 -33.517799999999994 L -74.12351999999998 29.855280000000008 C -74.12351999999998 29.855280000000008 -76.00220999999999 36.520570000000006 -74.12351999999998 40.58782000000001 C -72.24482999999998 44.65507000000001 -66.60877999999998 46.124280000000006 -66.60877999999998 46.124280000000006 z" stroke-linecap="round" />
</g>
</svg>